<svg version="1.2" xmlns="http://www.w3.org/2000/svg" viewBox="0 0 757 757" width="757" height="757">
	<style>
		.s0 { opacity: .99;fill: #090a05 } 
		.s1 { opacity: 1;fill: #c0da4a } 
	</style>
	<g id="Background">
		<path id="Path 0" fill-rule="evenodd" class="s0" d="m557.87 87.01c4.2 0.01 9.43 0.33 11.63 0.72 2.68 0.48 5.48 2.09 13 9.04l0.3 9.37c0.28 8.65 0.11 9.65-2.25 13.11-1.74 2.55-4.54 4.7-8.8 6.72-3.81 1.81-7.91 2.98-14.75 3.03l-0.03 9.25c-0.02 7.38-0.37 9.61-1.75 11.03-0.97 1.01-3.13 1.77-4.97 1.75-2.35-0.02-3.57-0.66-4.39-2.28-0.8-1.58-1.02-10.51-0.34-57.99l2.36-1.88c1.85-1.47 4.03-1.88 9.99-1.87zm0.01 20.99c-0.17 4.13 0.01 8.06 0.41 8.75 0.46 0.82 1.83 1.03 3.96 0.63 1.79-0.35 4.28-1.58 5.53-2.75 1.31-1.22 2.54-3.84 2.88-6.13 0.48-3.29 0.16-4.49-1.79-6.75-1.3-1.51-3.73-3.02-5.4-3.34-1.93-0.37-3.44-0.1-4.16 0.75-0.62 0.74-1.26 4.72-1.43 8.84zm46.02-16.97c1.43 0.02 3.34 0.58 4.25 1.25 0.91 0.67 1.95 2.35 2.32 3.72 0.39 1.42-0.06 5.08-1.04 8.5-0.95 3.3-2.09 6.67-2.53 7.5-0.45 0.83-1.96 5.33-3.37 10-1.41 4.67-2.56 8.95-2.57 9.5-0.01 0.55-0.79 1.8-1.74 2.78-0.94 0.98-2.96 1.77-4.47 1.75-1.73-0.02-3.12-0.77-3.75-2.03-0.65-1.3-0.67-4.01-0.06-7.75 0.52-3.16 1.83-9.58 2.93-14.25 1.09-4.67 2.53-10.53 3.2-13 0.67-2.47 1.89-5.29 2.72-6.25 0.83-0.96 2.68-1.74 4.11-1.72zm-93.9 0.96c2.03-0.04 4.66 0.8 6.25 1.98 1.75 1.29 4.96 6.64 8.85 14.78 3.35 7.01 6.76 14.55 7.58 16.75 0.82 2.2 2.19 5.8 3.04 8 0.85 2.2 2.17 5.46 2.92 7.25 0.75 1.79 1.36 3.81 1.37 4.5 0 0.69-0.67 2.26-1.5 3.5-0.94 1.41-2.54 2.26-4.26 2.28-1.6 0.01-3.64-0.93-4.87-2.25-1.16-1.26-2.4-3.4-2.75-4.78-0.34-1.37-1.41-3.48-2.38-4.67-1.7-2.11-1.91-2.13-13.75 0.81l-0.74 7.18c-0.41 4-1.36 7.79-2.16 8.56-0.78 0.75-2.47 1.4-3.76 1.45-1.29 0.04-3.19-0.58-4.24-1.38-1.8-1.38-1.86-2.7-1.32-25.95 0.46-19.27 0.94-25.57 2.28-29.5 0.93-2.75 2.65-5.78 3.82-6.73 1.17-0.95 3.69-1.75 5.62-1.78zm-0.01 32.26c0.01 2.06 0.35 3.95 0.76 4.2 0.41 0.24 2.1 0.1 3.75-0.32 2.14-0.55 3.1-1.46 3.34-3.2 0.18-1.34-0.95-5.03-2.5-8.2-1.56-3.18-3.12-5.76-3.47-5.75-0.35 0.01-0.91 2.16-1.26 4.77-0.34 2.61-0.62 6.44-0.62 8.5zm-55.44-10.25c2.63 0 3.67 0.53 4.39 2.25 0.52 1.24 2.78 6.53 5.03 11.75 2.24 5.22 4.07 9.84 4.05 10.25-0.01 0.41 0.61 2.21 1.39 4 0.77 1.79 2.01 5.28 2.75 7.75 1.02 3.44 1.87 4.56 3.59 4.75 1.24 0.14 4.05-0.65 6.25-1.75 2.2-1.1 5.35-2 7-2 2.13 0 3.43 0.72 4.5 2.5 1.28 2.14 1.3 2.9 0.15 5.25-0.97 1.96-4.34 4.29-11.75 8.1-6.47 3.34-11.16 5.16-12.4 4.83-1.1-0.28-2.64-2.02-3.43-3.85-0.78-1.83-3.42-8.05-5.87-13.83-2.45-5.78-6.19-15.45-8.32-21.5-2.13-6.05-3.92-11.69-3.97-12.53-0.06-0.84 0.64-2.53 1.54-3.75 1.15-1.55 2.69-2.22 5.1-2.22zm-22.05 17.71c1.65 0.29 3.58 1.03 4.29 1.66 0.72 0.62 1.3 2.48 1.3 4.13 0 1.65-0.58 3.52-1.3 4.15-0.71 0.64-3.09 1.62-5.29 2.18-2.2 0.57-5.46 2.42-7.25 4.1-1.79 1.69-3.25 3.97-3.25 5.07 0 1.1 0.79 2.73 1.75 3.61 1.15 1.06 2.78 1.44 4.75 1.1 1.65-0.29 6.06-1.13 9.8-1.87 6.6-1.3 6.93-1.27 11.48 1.16 3.05 1.63 5.47 3.9 6.94 6.5 1.6 2.84 2.25 5.66 2.26 9.75 0.01 3.16-0.6 6.99-1.36 8.5-0.76 1.51-3.35 4.46-5.75 6.55-2.4 2.09-5.03 4.34-5.84 5-0.84 0.68-4.52 1.2-8.48 1.2-6.66 0-7.06-0.13-8.28-2.75-0.9-1.96-0.98-3.47-0.27-5.25 0.8-1.99 2.43-2.91 8-4.5q6.99-2 8.51-4.25c0.83-1.24 1.52-3.15 1.54-4.25 0.02-1.1-0.71-2.68-1.64-3.5-1.38-1.24-3.06-1.34-9.79-0.58-4.47 0.5-9.69 0.89-11.62 0.87-1.93-0.02-4.83-0.66-6.46-1.41-1.63-0.76-4.03-2.95-5.34-4.88-2.03-2.99-2.32-4.45-2.01-10 0.29-5.33 0.94-7.36 3.58-11.25 1.78-2.61 4.92-5.98 6.98-7.48 2.06-1.5 5.1-3.03 6.75-3.41 1.65-0.37 4.35-0.44 6-0.15zm158.75 9.32c0.96-0.02 2.87 1.1 4.25 2.47 1.37 1.38 2.5 3.63 2.5 5 0 1.38-0.45 3.4-1 4.5-0.55 1.1-2.35 2.22-4 2.5-1.65 0.28-4.24-0.11-5.75-0.87-1.51-0.75-3.03-2.21-3.38-3.25-0.34-1.03 0.04-3.3 0.86-5.03 0.81-1.73 2.22-3.63 3.13-4.22 0.9-0.59 2.43-1.08 3.39-1.1zm-228.25 1.02c0.27-0.04 2.86 0.61 5.75 1.44 3.63 1.04 6.06 2.51 7.86 4.76 1.44 1.79 3.27 4.82 4.06 6.75 0.8 1.93 2.12 6.43 2.94 10 0.82 3.57 2.1 9.2 2.85 12.5 0.75 3.3 2.27 10.05 3.39 15 1.11 4.95 2.67 11.93 3.47 15.5 0.8 3.57 2.84 12.57 4.53 20 1.69 7.43 6.49 28.57 10.68 47 4.18 18.43 9.55 42.05 11.94 52.5 2.38 10.45 5.11 22.15 6.07 26 0.95 3.85 2.11 7.45 2.58 8 0.52 0.61 1.2 0.04 1.79-1.5 0.52-1.37 2.21-7.78 3.77-14.24 1.55-6.46 3.05-11.76 3.32-11.77 0.27-0.02 0.84 1.67 1.26 3.74 0.42 2.07 1.7 10.07 2.83 17.77 1.14 7.7 2.37 14.34 2.74 14.77 0.37 0.42 6.29 1.05 13.17 1.4 8.46 0.43 14.76 0.22 19.5-0.65 3.85-0.71 9.7-2.57 13-4.15 3.3-1.57 10.16-5.79 15.25-9.37 5.09-3.57 12.62-8.3 16.75-10.5 4.12-2.2 8.4-4 9.5-4 1.1 0 2.84-1.24 3.86-2.75 1.02-1.51 3.33-6.57 5.13-11.25 1.8-4.68 4.34-11.87 5.65-16 1.31-4.12 3.34-11.55 4.53-16.5 1.88-7.89 2.21-12.71 3.02-69l2.73-6c1.58-3.47 4.81-8.05 7.66-10.85 2.7-2.66 7.17-5.91 9.92-7.22 2.75-1.3 7.7-3.07 11-3.94 3.3-0.86 9.6-1.6 14-1.64 4.72-0.05 10.46 0.62 14 1.62 3.3 0.93 8.7 3.18 12 5.01 3.3 1.82 8.06 5.5 10.59 8.17 2.52 2.67 5.72 7.1 7.11 9.85 1.39 2.75 3.37 7.47 4.41 10.5 1.67 4.85 1.89 8.55 1.85 31.5-0.04 22.59-0.35 27.71-2.35 39-1.26 7.15-3.38 16.94-4.7 21.75-1.33 4.81-2.82 9.76-3.32 11-0.5 1.24-2.05 5.85-3.44 10.25-1.39 4.4-3.65 10.93-5.01 14.5-1.36 3.57-4.71 11-12.39 26.5l1.96 10c1.4 7.18 1.79 12.11 1.37 17.5-0.32 4.13-1.51 10.88-2.65 15-1.14 4.13-3.35 10.2-4.92 13.5-1.57 3.3-5.14 9.04-7.93 12.75-2.79 3.71-4.97 7.22-4.83 7.8 0.14 0.58 4.98 3.17 10.77 5.75 5.79 2.59 12.2 5.71 14.25 6.95 2.05 1.24 4.63 3.71 5.73 5.5 1.42 2.31 1.99 4.98 1.97 9.25-0.01 3.7-0.72 7.53-1.87 10-1.01 2.2-3.14 5.22-4.72 6.7-1.59 1.49-10.76 6.26-20.38 10.6-9.63 4.35-29.65 13.34-44.5 19.98-14.85 6.64-38.7 17.34-53 23.77-14.3 6.44-28.48 12.83-31.5 14.21-3.02 1.38-11.35 5.07-18.5 8.21-7.15 3.13-31 13.69-53 23.45-22 9.77-42.25 18.78-45 20.04-2.75 1.26-9.27 4.09-14.5 6.31-5.23 2.21-11.64 4.74-14.25 5.62-2.86 0.97-8.03 1.6-13 1.59-7.37-0.01-9.15-0.41-16.75-3.8-4.68-2.09-13.23-6.43-19-9.66-5.77-3.22-14.77-8.08-20-10.79-5.23-2.71-14-7.52-19.5-10.69-5.5-3.16-22.15-12.4-37-20.53-14.85-8.13-33.75-18.47-42-22.98-8.25-4.51-21.88-11.99-30.29-16.61-8.41-4.63-16.91-10-18.9-11.92-1.99-1.92-4.29-5.08-5.13-7-0.98-2.24-1.46-6.11-1.18-18l-2.75 0.01c-1.51 0.01-5.2-1.23-8.18-2.75-2.99-1.52-6.59-4.32-8-6.22-1.91-2.57-4.19-9.85-8.9-28.5-3.49-13.77-7.84-31.34-9.67-39.04-1.84-7.7-6.36-25.93-10.05-40.5-3.69-14.57-7.3-29.2-8.02-32.5-0.71-3.3-2.44-10.27-3.83-15.5-1.39-5.23-7.53-29.52-13.65-54-6.12-24.48-11.51-46.3-11.99-48.5-0.48-2.2-0.88-6.7-0.89-10-0.02-3.94 0.67-7.54 2.01-10.5 1.13-2.47 3.03-5.56 4.23-6.85 1.21-1.29 3.88-3.2 5.94-4.25 2.06-1.04 16.01-4.35 31-7.33 14.99-2.99 32.65-6.62 39.25-8.06 6.6-1.45 25.05-5.29 41-8.55 15.95-3.26 38.67-7.92 50.5-10.35 11.82-2.43 28.93-6.02 38-7.97 9.07-1.95 28.65-6.06 43.5-9.12 14.85-3.07 31.27-6.51 36.5-7.65 5.23-1.14 17.82-3.8 28-5.91 10.18-2.12 18.73-3.87 19-3.91zm-103.75 196.05c-2.06 1.16-5.31 3.29-7.22 4.75-1.91 1.46-4.28 3.55-5.27 4.65-0.99 1.1-1.8 2.45-1.79 3 0.01 0.63 2.3 0.75 6.27 0.3 3.44-0.38 10.31-1.79 15.26-3.14 4.95-1.35 10.24-2.95 11.75-3.55 1.51-0.61 3.65-1.11 4.75-1.11 1.67 0 1.81 0.29 0.87 1.75-0.63 0.96-0.85 2.99-0.5 4.5 0.34 1.51 1.31 2.75 2.13 2.75 0.82 0 3.07-1.35 5-3 2.56-2.19 3.5-3.81 3.5-6 0-1.84-0.87-3.78-2.25-5.02-1.24-1.12-3.6-2.43-5.25-2.92-1.65-0.49-5.25-1.12-8-1.41-2.91-0.3-7.19 0.08-10.25 0.92-2.89 0.78-6.94 2.38-9 3.53zm175.76 32.65c0 0.69 0.67 1.25 1.49 1.25 0.82 0 1.47-0.79 1.43-1.75-0.04-0.96-0.41-2.65-0.83-3.75-0.72-1.87-0.81-1.84-1.42 0.5-0.36 1.37-0.66 3.06-0.67 3.75zm-32.98 29.25c1.67 7.98 3.72 18.1 4.55 22.5 0.83 4.4 1.38 8.12 1.21 8.27-0.16 0.15-6.81-3.01-14.79-7.02-7.98-4.01-16.86-8.3-19.75-9.52-2.89-1.23-5.25-1.89-5.25-1.48 0 0.41 6.32 7.5 14.03 15.75 7.72 8.25 14.02 15.34 14 15.75-0.02 0.41-7.91 0.52-17.53 0.25-9.63-0.27-17.51-0.16-17.52 0.25-0.01 0.41 7.66 4.57 17.04 9.25 9.39 4.68 16.93 8.89 16.77 9.37-0.16 0.48-3.89 2.46-8.29 4.4-4.4 1.94-10.93 5.14-14.5 7.11-3.57 1.97-5.82 3.71-5 3.87 0.82 0.15 9.15-0.8 18.5-2.12 9.35-1.31 17.36-2.11 17.81-1.76 0.44 0.35-4.02 5.81-9.92 12.13-5.91 6.32-10.21 11.61-9.56 11.75 0.64 0.14 8.48-3.17 17.42-7.34 8.94-4.17 16.58-7.21 16.98-6.75 0.4 0.46 1.02 5.11 1.38 10.34 0.36 5.23 1 10.18 1.42 11 0.55 1.08 1.66-0.32 3.97-5l3.22-6.5c-3.35-6.75-4.23-10.45-4.23-13.25-0.02-3.58 0.72-5.92 3-9.5 1.65-2.61 3.01-4.98 3.01-5.25 0-0.27-2.14-1.17-4.75-1.99-2.61-0.82-6.44-2.62-8.5-4-2.06-1.38-4.38-3.75-5.15-5.26-0.77-1.51-1.71-4.33-2.09-6.25-0.37-1.93-0.19-5.41 0.41-7.75 0.59-2.34 2.54-5.88 4.33-7.88 1.79-1.99 5.05-4.67 7.25-5.95 2.2-1.28 9.62-4.3 16.5-6.72 6.87-2.41 13.85-5.09 15.5-5.95l3-1.57c-6.2-1.04-8.45-1.46-9-1.61-0.55-0.15-2.13 0.58-3.5 1.61-1.38 1.04-2.84 1.87-3.25 1.85-0.41-0.01-0.75-1.27-0.76-2.78-0.01-2.27-1.05-3.4-6-6.5-4.06-2.54-6.12-3.35-6.41-2.5-0.23 0.69-1.17 4.62-2.09 8.75-0.92 4.12-2.03 7.05-2.46 6.5-0.43-0.55-5.68-8.99-11.66-18.75-5.99-9.76-11.22-17.75-11.63-17.75-0.41 0-0.74 0.79-0.74 1.75 0 0.96 1.37 8.27 3.03 16.25zm-11.31 13.78c1.53 0.7 3.01 1.05 3.28 0.77 0.27-0.28-0.18-1.21-1-2.07-0.82-0.86-2.29-1.55-3.25-1.52-0.96 0.02-1.76 0.38-1.78 0.79-0.01 0.41 1.22 1.32 2.75 2.03zm135.46-220.39c2.1 0.34 4.94 1.06 6.32 1.61 1.73 0.69 2.5 1.77 2.5 3.5 0 1.37-0.94 5.54-2.09 9.25-1.14 3.71-4.69 14.85-7.88 24.75-3.19 9.9-9.5 29.47-14.03 43.5-4.52 14.02-11.43 35.36-15.36 47.42-3.93 12.05-7.28 21.28-7.45 20.5-0.17-0.78 1.78-11.32 4.33-23.42 2.54-12.1 5.69-26.28 6.99-31.5 1.3-5.23 4.41-18.73 6.9-30 2.5-11.28 5.7-25.45 7.12-31.5 1.42-6.05 3.73-15.95 5.12-22 1.39-6.05 2.8-11.39 3.12-11.86 0.32-0.47 2.31-0.58 4.41-0.25zm-47.87 44.33l5.6 0.63c3.07 0.34 6.04 1.09 6.59 1.66 0.67 0.7 0.1 6.74-1.73 18.27-1.51 9.47-4.54 28.47-6.74 42.22-2.2 13.75-4.94 30.4-6.08 37-1.14 6.6-2.38 12.79-2.76 13.76-0.38 0.97-0.58-1.28-0.45-5 0.14-3.72 0.72-16.21 1.3-27.76 0.58-11.55 1.69-32.7 2.48-47 0.79-14.3 1.52-27.75 1.61-29.89zm-32.56 32.32c1.24-0.02 2.25 0.52 2.25 1.21 0.01 0.69 0.9 10.25 1.99 21.25 1.09 11 2.44 23.82 3 28.5 0.55 4.67 0.98 9.85 0.94 11.5-0.03 1.75-1.5-1.98-3.54-9-1.92-6.6-5.49-19.88-7.94-29.5-2.45-9.63-4.68-18.29-4.95-19.25-0.36-1.25 0.44-2.17 2.75-3.21 1.79-0.8 4.27-1.48 5.5-1.5zm84.6 3.92c0.63-0.03 2.16 0.76 5.63 3.54l-3.35 8c-1.84 4.4-6.4 15.42-10.13 24.5-3.73 9.07-6.95 16.72-7.14 17-0.2 0.27-0.51 0.27-0.7 0-0.19-0.28 1.33-6.58 3.37-14 2.04-7.43 4.91-18 6.39-23.5 1.48-5.5 3.16-11.24 3.73-12.75 0.58-1.51 1.56-2.77 2.2-2.79zm201.15 11.82l4.23 4.86c2.33 2.67 4.26 5.53 4.3 6.36 0.03 0.82-10.18 10.27-22.69 21-12.51 10.72-25.92 22.22-29.8 25.54-3.87 3.31-13.93 11.86-22.35 19-8.42 7.13-17.1 14.53-19.29 16.46-2.19 1.92-3.95 3.05-3.92 2.5 0.04-0.55 3.27-4.6 7.19-9 3.91-4.4 13.24-14.52 20.72-22.49 7.49-7.97 17.87-19 23.06-24.5 5.2-5.51 16-16.7 24-24.87zm-37.18 0.24c0.65 0.02 1.99 0.81 2.97 1.75 0.98 0.95 1.75 2.18 1.72 2.73-0.03 0.55-2.85 4.37-6.25 8.5-3.41 4.12-11.5 13.69-17.98 21.25-6.48 7.56-12 13.75-12.28 13.75-0.27 0 0.13-1.24 0.89-2.75 0.76-1.51 5.8-9.5 11.21-17.75 5.4-8.25 11.79-17.81 14.18-21.25 2.4-3.44 4.89-6.24 5.54-6.23zm31.93 51.01c0.97-0.02 2.65 1.43 3.75 3.22 1.1 1.79 2 4.04 2 5 0 1.06-2.37 3.23-6 5.5-3.3 2.06-10.76 6.45-16.58 9.75-5.81 3.3-17.62 10.23-26.24 15.4-8.62 5.17-21.08 12.54-27.68 16.39-6.6 3.85-12.67 7.22-13.5 7.5-0.82 0.28 2.17-2.37 6.66-5.89 4.48-3.52 11.23-8.76 15-11.64 3.76-2.89 15.17-11.4 25.34-18.93 10.18-7.52 22.33-16.51 27-19.97 4.68-3.47 9.29-6.32 10.25-6.33zm-661.3 136.98c0.31 0.01 1.13 0.35 1.83 0.75 0.7 0.41 2.58 5.69 4.17 11.74 1.6 6.05 3.35 12.35 3.88 14 0.54 1.65 1.65 4.57 2.47 6.5 0.82 1.92 4.01 5.86 7.1 8.75 3.08 2.89 6.5 5.47 7.6 5.75 1.37 0.34 2.34 1.85 3.05 4.75 0.58 2.34 1.73 6.27 2.56 8.75 0.83 2.47 2.79 6.07 4.34 8 1.56 1.92 6.37 5.6 10.69 8.16 4.33 2.57 18.66 10.62 31.86 17.89 13.2 7.28 28.95 15.91 35 19.19 6.05 3.28 14.83 8.14 19.5 10.8 4.68 2.66 12.12 6.77 16.55 9.15 4.42 2.37 13.32 7.23 19.78 10.81 6.46 3.57 19.94 11.12 29.96 16.77 10.02 5.64 23.16 12.76 29.21 15.82 8.74 4.41 12.55 5.75 18.5 6.52 4.13 0.54 9.98 0.68 13 0.31 3.03-0.36 8.2-1.69 11.5-2.95 3.3-1.26 10.39-4.36 15.75-6.88 5.37-2.53 10.09-4.6 10.5-4.6 0.42-0.01 5.25-2.09 10.75-4.63 5.5-2.54 12.25-5.63 15-6.87 2.75-1.25 14.68-6.54 26.5-11.76 11.83-5.23 26.45-11.65 32.5-14.27 6.05-2.63 18.43-8.32 27.5-12.67 9.08-4.34 18.42-8.54 20.75-9.34 2.34-0.8 4.96-1.11 5.83-0.7 0.86 0.41 1.43 1.64 1.25 2.72-0.25 1.5-6.09 4.68-24.33 13.24-13.2 6.19-28.95 13.36-35 15.93-6.05 2.56-14.37 6.18-18.5 8.03-4.12 1.86-8.17 3.75-9 4.21-0.82 0.47-5.32 2.44-10 4.39-4.67 1.94-11.65 4.95-15.5 6.68-3.85 1.72-7.78 3.57-8.75 4.09-0.96 0.53-11.08 5.06-22.5 10.06-11.41 5.01-23.67 9.73-27.25 10.49-3.57 0.75-9.2 1.37-12.5 1.37-3.3 0-8.7-0.39-12-0.86-3.62-0.52-9.76-2.67-15.5-5.42-5.22-2.5-12.2-6.09-15.5-7.98-3.3-1.88-14.77-8.25-25.5-14.15-10.72-5.9-20.62-11.45-22-12.34-1.37-0.89-8.12-4.59-15-8.24-6.87-3.64-19.25-10.36-27.5-14.92-8.25-4.57-21.97-12.15-30.5-16.84-8.52-4.69-22.47-12.34-31-17.01-8.52-4.67-18.42-10.36-22-12.64-3.57-2.28-7.7-5.7-9.16-7.6-1.47-1.9-3.61-5.94-4.75-8.96-1.15-3.03-2.09-6.51-2.09-7.75 0-1.56-1.58-3.4-5.18-6-2.85-2.06-6.83-6-8.85-8.75-2.02-2.75-4.37-6.8-5.22-9-0.86-2.2-2.73-8.61-4.15-14.25-1.43-5.64-2.69-11.51-2.8-13.05-0.11-1.54 0.43-3.34 1.2-4 0.77-0.66 1.65-1.19 1.95-1.19zm537.05 77.19c0.83 0.27 11.79 3.81 24.36 7.85 14.77 4.75 22.83 7.82 22.75 8.65-0.06 0.72-0.56 2.42-1.11 3.8-0.55 1.37-1.67 2.5-2.5 2.5-0.82 0-10.83-4.79-22.25-10.65-11.41-5.85-21.2-11.09-21.75-11.64q-1-1.01 0.5-0.51zm-13.69 5.9c1.21 0.65 7.59 4.34 14.19 8.21 6.6 3.86 20.67 12.35 31.25 18.86 11.19 6.87 19.25 12.46 19.25 13.33 0 0.82-1.23 2.88-2.75 4.57-1.51 1.69-3.31 2.81-4 2.5-0.68-0.31-9.91-7.43-20.5-15.82-10.59-8.39-23.86-18.96-29.5-23.5-5.64-4.54-10.22-8.49-10.19-8.79 0.03-0.29 1.04 0 2.25 0.64zm-9.57 7.89c3.72 3.57 12.5 12.12 19.52 19 7.01 6.88 12.75 12.85 12.75 13.26 0 0.41-1.02 1.63-2.26 2.72-1.23 1.08-2.7 1.99-3.25 2.02-0.55 0.04-2.57-2.08-4.49-4.71-1.92-2.63-5.99-7.93-9.04-11.78-3.05-3.85-8.79-11.16-12.75-16.25-3.97-5.09-7.22-9.59-7.23-10 0-0.41 3.04 2.17 6.75 5.74z"/>
		<path id="Path 1" fill-rule="evenodd" class="s1" d="m350.5 167.59c-3.3 0.8-10.05 2.32-15 3.38-4.95 1.06-12.6 2.67-17 3.58-4.4 0.91-11.6 2.47-16 3.48-4.4 1-10.25 2.31-13 2.89-2.75 0.59-10.18 2.23-16.5 3.65-6.32 1.43-13.52 2.96-16 3.42-2.47 0.45-8.78 1.75-14 2.87-5.22 1.12-14.68 3.21-21 4.63-6.32 1.43-14.88 3.3-19 4.17-4.13 0.87-10.2 2.15-13.5 2.85-3.3 0.7-17.7 3.85-32 7-14.3 3.16-30.95 6.81-37 8.12-6.05 1.31-13.25 2.8-16 3.32-2.75 0.52-9.05 1.83-14 2.91-4.95 1.08-12.15 2.71-16 3.61-4.18 0.99-8.11 2.64-9.75 4.09-1.51 1.34-3 3.9-3.3 5.69-0.34 1.97 0.26 5.82 1.52 9.75 1.13 3.57 2.06 7.18 2.06 8 0 0.82 0.67 3.75 1.49 6.5 0.82 2.75 4.19 16.25 7.5 30 3.3 13.75 6.89 28.37 7.98 32.5 1.08 4.12 7.55 30 14.36 57.5 6.81 27.5 14.28 58.1 16.61 68 2.33 9.9 4.86 19.46 5.63 21.25 0.77 1.79 2.62 4.04 4.1 5 1.49 0.96 4.3 1.7 6.25 1.64 1.95-0.07 8.27-1.71 14.05-3.66 5.78-1.94 31.2-10.29 56.5-18.56 25.3-8.26 47.13-15.31 48.5-15.66 1.38-0.36 4.75-1.48 7.5-2.5 2.75-1.03 19.85-6.66 38-12.53 18.15-5.87 37.73-12.23 43.5-14.14 5.77-1.9 11.1-3.77 11.83-4.15 0.95-0.49-0.86-3.14-6.29-9.19-4.19-4.68-7.38-8.73-7.1-9 0.29-0.27 5.59 2.03 11.79 5.11 6.2 3.09 12.84 6.19 14.77 6.89 3.13 1.13 4.35 0.98 11.5-1.41 4.4-1.48 10.25-3.35 13-4.15 2.75-0.81 5.13-1.57 5.3-1.7 0.16-0.13-0.17-3.39-0.75-7.24-0.57-3.85-2.37-14.65-3.98-24-1.62-9.35-2.74-17.11-2.51-17.25 0.24-0.14 3.34 4.36 6.89 10 3.54 5.64 9.28 14.62 12.75 19.97 4 6.17 6.57 9.27 7.03 8.5 0.41-0.67 0.75-2.57 0.76-4.22 0.01-1.65-1.35-9.3-3.02-17-1.68-7.7-4.18-18.73-5.56-24.5-1.38-5.77-3.43-14.32-4.55-19-1.12-4.68-2.91-12.32-3.98-17-1.07-4.68-2.8-12.55-3.85-17.5-1.06-4.95-2.38-10.8-2.94-13-0.56-2.2-2.43-9.85-4.15-17-1.72-7.15-3.78-16.15-4.59-20-0.8-3.85-1.85-8.57-2.32-10.5-0.47-1.93-2.02-8.68-3.44-15-1.42-6.32-3.64-16.22-4.92-22-1.28-5.78-3.08-11.96-4-13.75-0.92-1.79-3.02-3.93-4.67-4.75-1.65-0.82-3.11-1.47-3.25-1.43-0.14 0.04-2.95 0.73-6.25 1.52zm-82.25 166.98c3.06-0.84 7.34-1.22 10.25-0.92 2.75 0.29 6.35 0.92 8 1.41 1.65 0.49 4.01 1.8 5.25 2.92 1.38 1.24 2.25 3.18 2.25 5.02 0 2.19-0.94 3.81-3.5 6-1.93 1.65-4.18 3-5 3-0.82 0-1.79-1.24-2.13-2.75-0.35-1.51-0.13-3.54 0.5-4.5 0.94-1.46 0.8-1.75-0.87-1.75-1.1 0-3.24 0.5-4.75 1.11-1.51 0.6-6.8 2.2-11.75 3.55-4.95 1.35-11.82 2.76-15.26 3.14-3.97 0.45-6.26 0.33-6.27-0.3-0.01-0.55 0.8-1.9 1.79-3 0.99-1.1 3.36-3.19 5.27-4.65 1.91-1.46 5.16-3.59 7.22-4.75 2.06-1.15 6.11-2.75 9-3.53zm-54.25-153.37c-0.77 0.66-1.31 2.24-1.2 3.5 0.11 1.3 1.26 2.84 2.65 3.55 2.03 1.04 2.72 0.99 4.04-0.25 0.88-0.82 1.59-2.4 1.57-3.5-0.01-1.1-0.6-2.57-1.29-3.27-0.7-0.69-1.97-1.26-2.82-1.25-0.85 0.01-2.18 0.56-2.95 1.22zm373.12 25.64c-1.86 0.4-5.43 1.83-7.92 3.19-2.5 1.36-6.6 4.74-9.12 7.51-2.74 3.02-5.28 7.13-6.33 10.25-1.54 4.57-1.67 7.81-1.13 26.46 0.48 16.86 0.28 23.42-0.99 31.75-0.88 5.77-2.77 14.77-4.2 20-1.43 5.23-3.19 11.52-3.91 14-0.72 2.48-2.89 8.1-4.83 12.5-1.94 4.4-3.34 8.34-3.11 8.75 0.23 0.41 1.88 0.98 3.67 1.26 1.79 0.28 4.15 1.42 5.25 2.52 1.35 1.36 1.67 2.36 1 3.07-0.55 0.57-5.27 1.13-10.5 1.23-7.86 0.15-10.45 0.63-15 2.75-3.02 1.41-7.98 4.31-11 6.44-3.02 2.13-8.2 5.75-11.5 8.05-3.3 2.3-8.02 5.2-10.5 6.44-2.48 1.25-8.1 3.36-12.5 4.71-7.62 2.33-8.86 2.42-26.25 1.86-10.11-0.32-19.25-0.18-20.5 0.32-1.24 0.5-3.26 1.85-4.5 3q-2.25 2.1-2.25 5.6c0 2.24 0.85 4.49 2.37 6.25 1.3 1.51 4.78 3.97 7.75 5.46 2.96 1.49 8.31 3.18 11.88 3.75 3.57 0.56 8.41 1.03 10.75 1.03 2.34 0.01 6.61-0.9 9.5-2.01 2.89-1.11 6.71-3.47 8.49-5.25 2.95-2.94 3.47-3.12 5.75-1.98 1.38 0.69 2.51 1.93 2.51 2.75 0 0.82-1.52 3.19-3.38 5.25-1.87 2.06-8.05 6.52-13.75 9.92-5.71 3.39-14.19 7.74-18.87 9.67-4.68 1.93-11.88 4.72-16 6.19-4.13 1.48-9.67 3.87-12.31 5.33-3.35 1.84-5.41 3.86-6.78 6.64-1.83 3.71-1.87 4.29-0.46 8 1.03 2.72 2.72 4.71 5.28 6.22 2.65 1.56 5.4 2.22 9.27 2.22 3.02 0.01 7.52-0.46 10-1.04 2.48-0.57 7.65-2.61 11.5-4.52 3.85-1.92 9.25-4.89 12-6.61 2.75-1.72 9.05-6.16 14-9.87 4.95-3.7 11.02-8.8 13.5-11.33 2.48-2.53 5.29-4.59 6.25-4.58 0.96 0 2.03 0.8 2.38 1.76 0.34 0.96 0.12 2.76-0.5 4-0.62 1.24-2.14 3.42-3.38 4.86-1.24 1.43-6.3 5.95-11.25 10.03-4.95 4.09-9.47 7.75-10.05 8.14-0.58 0.4-1.93 1.26-3 1.93-1.07 0.66-4.65 2.76-7.95 4.65-3.3 1.89-10.05 5.5-15 8.01-4.95 2.52-10.75 6.05-12.89 7.85-2.14 1.8-4.55 4.63-5.36 6.28-0.89 1.84-1.23 4.26-0.86 6.25 0.34 1.79 2.07 4.76 3.86 6.61 2.5 2.58 4.4 3.51 8.25 4.05 3.39 0.47 6.61 0.2 10-0.82 2.75-0.83 7.7-3.14 11-5.13 3.3-1.99 11.17-7.52 17.49-12.29 6.32-4.77 14.59-11.6 18.38-15.17 3.79-3.57 9.75-9.99 13.26-14.25 4.08-4.96 7.09-7.75 8.37-7.75 1.1 0 2.28 0.79 2.61 1.75 0.34 0.96 0.01 3.1-0.73 4.75-0.74 1.65-4.56 6.82-8.49 11.5-3.93 4.68-8.89 10.12-11.02 12.1-2.13 1.98-7.13 6.14-11.12 9.25-3.99 3.11-7.48 5.65-7.75 5.65-0.27 0-1.71 1.01-3.2 2.25-1.48 1.24-4.55 4.05-6.82 6.25-3.1 3-4.4 5.25-5.22 9-0.85 3.88-0.8 5.56 0.2 7.5 0.72 1.38 1.92 3.06 2.67 3.75 0.75 0.68 3.17 1.67 5.37 2.19 2.63 0.62 5.71 0.58 9-0.12 2.75-0.59 6.8-1.97 9-3.08 2.2-1.11 7.59-4.77 11.97-8.13 4.39-3.36 11.08-9.04 14.88-12.61 3.79-3.57 11.05-11.68 16.12-18 5.08-6.32 10.88-12.96 12.88-14.75 2.05-1.83 4.74-3.25 6.15-3.25 1.37 0 2.79 0.56 3.14 1.25 0.35 0.69-1.44 5.3-3.98 10.25-2.54 4.95-5.3 11.25-6.13 14-0.83 2.75-1.57 9.27-1.63 14.5-0.09 6.74 0.32 10.37 1.4 12.5 0.84 1.65 2.8 4.25 4.36 5.77 1.76 1.72 4.37 2.99 6.84 3.34 3.17 0.44 4.73 0.07 7.5-1.81 1.92-1.3 4.36-4.15 5.41-6.34 1.06-2.18 2.75-9.58 3.77-16.46 1.36-9.25 2.68-14.31 5.08-19.47 1.78-3.84 5.94-10.81 9.25-15.5 3.3-4.69 7.46-10.78 9.23-13.53 1.77-2.75 4.58-8.6 6.24-13 2.57-6.84 3.01-9.38 3.02-17.5 0.01-5.4-0.66-12.09-1.55-15.5-0.86-3.3-3.15-9.6-5.09-14-1.95-4.4-3.27-8.56-2.95-9.25 0.33-0.69 1.15-1.24 1.84-1.23 0.69 0 2.68 1.47 4.43 3.25l3.18 3.23c3.8-7.75 6.48-13.82 8.41-18.5 1.93-4.68 4.88-12.55 6.55-17.5 1.68-4.95 3.94-12.37 5.02-16.5 1.08-4.12 2.89-11.77 4.01-17 1.12-5.23 2.63-12.65 3.35-16.5 0.83-4.46 1.29-14.99 1.26-29-0.03-17.49-0.38-23.13-1.69-27.5-0.91-3.02-2.78-7.52-4.16-10-1.37-2.47-4.21-6.46-6.3-8.86-2.46-2.82-6.45-5.66-11.25-8-6.91-3.38-8.16-3.65-17.5-3.83-5.53-0.11-11.58 0.13-13.44 0.53zm-550.01 14.7c-2.03 2.26-3.32 4.94-3.7 7.71-0.35 2.52 0.07 7.1 1.03 11.25 0.9 3.85 2.29 9.48 3.09 12.5 0.81 3.02 2.57 10 3.92 15.5 1.34 5.5 3.85 15.85 5.58 23 1.72 7.15 4.22 17.05 5.56 22 1.33 4.95 4.49 17.55 7.02 28 2.53 10.45 5.17 21.48 5.88 24.5 0.71 3.02 2.49 10.23 3.96 16 1.47 5.77 3.06 12.3 3.54 14.5 0.47 2.2 2.49 10.52 4.47 18.5 1.99 7.98 5.2 20.8 7.14 28.5 1.94 7.7 4.14 16.25 4.89 19 0.76 2.75 2.14 8.6 3.07 13 0.94 4.4 2.66 10.89 3.82 14.42 1.75 5.29 2.78 6.83 5.87 8.75 2.06 1.28 4.2 2.33 4.75 2.33 0.55 0-0.12-2.36-1.49-5.25-1.37-2.89-2.93-7.5-3.46-10.25-0.53-2.75-1.87-8.82-2.98-13.5-1.1-4.68-2.31-9.18-2.67-10-0.37-0.82-1.03-3.3-1.47-5.5-0.44-2.2-2.41-10.52-4.37-18.5-1.96-7.98-4.45-17.87-5.53-22-1.09-4.12-3.35-13.35-5.02-20.5-1.68-7.15-3.89-15.93-4.91-19.5-1.03-3.57-3.26-12.35-4.96-19.5-1.69-7.15-4.94-20.43-7.21-29.5-2.28-9.07-4.71-18.98-5.41-22-0.71-3.02-1.84-7.75-2.53-10.5-0.69-2.75-1.85-7.25-2.59-10-0.73-2.75-2.07-7.93-2.98-11.5-0.9-3.57-2.01-8.3-2.46-10.5-0.44-2.2-1.8-7.6-3.01-12-1.21-4.4-2.63-9.8-3.16-12-0.52-2.2-1.18-5.57-1.45-7.5-0.28-1.98 0.19-5.35 1.08-7.75 0.87-2.34 1.18-4.46 0.69-4.71-0.48-0.26-2.28 1.09-4 3zm320.39 200.81c-1.65 0.72-5.25 2.06-8 2.99-2.75 0.92-16.02 5.32-29.5 9.77-13.48 4.45-30.35 10.13-37.5 12.62-7.15 2.5-15.02 5.13-17.5 5.87-2.48 0.73-6.75 2.07-9.5 2.97-2.75 0.89-11.07 3.79-18.5 6.43-7.43 2.64-15.97 5.48-19 6.32-3.03 0.83-13.37 4.25-23 7.6-9.62 3.36-19.97 6.8-23 7.65-3.03 0.85-6.62 2.08-7.98 2.74-1.37 0.65-2.61 1.98-2.75 2.94-0.16 1 0.7 2.23 1.98 2.87 1.81 0.9 3.82 0.6 10.25-1.49 4.4-1.43 20.6-6.9 36-12.15 15.4-5.25 33.63-11.35 40.5-13.55 6.88-2.2 15.65-5.15 19.5-6.54 3.85-1.4 8.57-3.13 10.5-3.85 1.93-0.72 9.57-3.23 17-5.57 7.43-2.34 17.55-5.71 22.5-7.49 4.95-1.78 10.46-3.52 12.25-3.86 2.3-0.44 3.1-1.06 2.75-2.12-0.27-0.82 0.18-1.95 1-2.5 0.82-0.55 2.96-0.74 4.75-0.42 1.88 0.34 5.57-0.13 8.75-1.11 3.02-0.93 7.98-2.56 11-3.61 3.02-1.06 6.18-2.14 7-2.41 1.2-0.38 0.99-0.99-1-2.99-1.37-1.38-3.18-2.49-4-2.46-0.82 0.02-2.85 0.63-4.5 1.35zm-19 28.1c-2.75 0.7-6.24 1.79-7.75 2.41-1.51 0.63-2.58 1.48-2.36 1.89 0.21 0.41 3.02 2.08 6.25 3.71l5.86 2.96c13.04-4.59 17-6.37 17.2-6.92 0.2-0.55-2.12-2.01-5.16-3.25-3.05-1.24-6.33-2.21-7.29-2.16-0.96 0.04-4 0.65-6.75 1.36zm-28.41 9.88c-4.08 1.2-7.57 2.73-7.75 3.42-0.19 0.69 2 2.36 4.91 3.74 2.89 1.37 6.6 2.48 8.25 2.47 1.65-0.01 5.44-1.02 8.42-2.24 2.99-1.22 5.58-2.78 5.75-3.47 0.18-0.69-1.58-2.08-3.92-3.09-2.34-1.02-5.15-2.11-6.25-2.42-1.1-0.32-5.34 0.4-9.41 1.59zm50.41-0.4c-2.75 0.98-5.11 2.29-5.25 2.92-0.14 0.63 2.34 2.33 5.5 3.78l5.75 2.62c8.84-4.46 11.26-5.98 11.09-6.25-0.18-0.27-2.4-1.51-4.95-2.75-2.55-1.24-5.2-2.22-5.89-2.17-0.69 0.04-3.5 0.87-6.25 1.85zm-24 8.65c-2.75 0.77-5.45 1.85-6 2.39-0.55 0.55-0.77 1.13-0.5 1.3 0.27 0.17 2.3 1.55 4.5 3.07 3.29 2.28 4.8 2.7 8.5 2.35 2.48-0.23 6.86-1.27 9.74-2.31 2.88-1.03 5.26-2.33 5.28-2.88 0.03-0.55-2.44-2.01-5.49-3.25-3.04-1.24-6.77-2.21-8.28-2.16-1.51 0.05-5 0.72-7.75 1.49zm-54.5 1.82c-3.57 1.27-6.61 2.83-6.75 3.45-0.14 0.63 2.34 2.34 5.5 3.78 4.59 2.11 6.56 2.5 9.75 1.94 2.2-0.39 6.14-1.57 8.75-2.63 2.61-1.07 4.52-2.39 4.25-2.94-0.27-0.55-2.75-2.12-5.5-3.5-2.75-1.37-6.01-2.48-7.25-2.46-1.24 0.02-5.18 1.08-8.75 2.36zm27.5 7.74c-2.75 1.11-5.11 2.21-5.25 2.44-0.14 0.23 1.89 1.75 4.5 3.39 2.61 1.63 6.1 3.24 7.75 3.59 1.65 0.34 3.9 0.16 5-0.41 1.1-0.56 4.25-1.97 7-3.13l5-2.12c-9.14-4.94-12.35-5.92-15-5.87-2.2 0.04-6.25 0.99-9 2.11zm-50.5 0.01c-1.93 0.5-5.21 1.69-7.3 2.63-2.2 0.99-3.68 2.31-3.5 3.12 0.16 0.76 3 2.53 6.3 3.92l6 2.53c10.07-3.32 13.9-4.92 15-5.7 1.9-1.35 1.76-1.54-3-3.89-2.75-1.36-6.12-2.71-7.5-3-1.37-0.29-4.07-0.12-6 0.39zm27.05 8.51c-4.91 1.65-7.38 2.99-7.25 3.92 0.11 0.78 2.79 2.61 5.95 4.06 4.08 1.87 6.62 2.45 8.75 2 1.65-0.34 5.25-1.24 8-1.99 3.17-0.87 5.09-1.97 5.25-3.01 0.17-1.14-1.72-2.55-6.25-4.64-3.57-1.65-6.61-2.96-6.75-2.92-0.14 0.04-3.6 1.2-7.7 2.58zm-58.55 2.52c-3.3 1.14-6.56 2.48-7.25 2.95-0.69 0.48-1.09 1.21-0.89 1.62 0.2 0.41 3.24 1.94 6.75 3.4 5.85 2.43 6.77 2.55 10.89 1.45 2.47-0.67 6.19-1.97 8.25-2.9 2.06-0.94 3.75-2.15 3.75-2.7 0-0.55-1.91-1.83-4.25-2.84-2.34-1.01-5.82-2.11-7.75-2.45-2.35-0.42-5.48 0.07-9.5 1.47zm118.32 0.2c-3.12 0.62-5.93 1.46-6.25 1.87-0.31 0.41 0.89 1.48 2.68 2.37 2.28 1.14 4.44 1.42 7.25 0.94 2.2-0.37 5.91-1.55 8.25-2.62 2.34-1.07 4.25-2.39 4.25-2.94 0-0.56-2.33-0.94-5.25-0.87-2.89 0.07-7.8 0.63-10.93 1.25zm260.13 7.28c-17.53 7.86-18.51 8.45-19.7 11.81-0.69 1.94-0.91 3.54-0.5 3.55 0.41 0.01 3.9-1.29 7.75-2.89 3.85-1.61 10.15-4.34 14-6.09 3.85-1.74 8.58-3.87 10.5-4.73 1.92-0.86 4.52-2.51 5.78-3.68 1.25-1.17 2.31-2.89 2.35-3.82 0.04-0.93-0.33-1.86-0.83-2.06-0.49-0.21-9.2 3.35-19.35 7.91zm-233.48-4.88c-3.78 1.37-6.8 2.77-6.7 3.11 0.09 0.33 1.31 1.17 2.7 1.86 1.39 0.69 3.09 1.21 3.78 1.17 0.69-0.05 2.82-1.86 4.75-4.03 1.93-2.17 3.24-4.09 2.92-4.27-0.32-0.18-3.67 0.79-7.45 2.16zm-51.09 0.98c-1.03 0.2-3.9 0.99-6.38 1.75-2.48 0.77-5.06 2.09-5.75 2.94-1.07 1.32-0.48 1.98 4 4.52 2.89 1.63 6.15 2.98 7.25 2.98 1.1 0.01 4.7-0.95 8-2.12 3.3-1.18 6.68-2.71 7.5-3.41 1.28-1.08 0.84-1.59-3-3.49-2.48-1.22-5.68-2.51-7.12-2.88-1.44-0.36-3.46-0.49-4.5-0.29zm-61.38 3.18c-2.48 1.03-5.29 2.14-6.25 2.47-0.96 0.32-1.52 1.04-1.25 1.59 0.28 0.55 3.09 2.42 6.25 4.15l5.75 3.15c8.91-2.56 12.63-3.98 14-4.8 1.38-0.82 2.51-1.84 2.51-2.25 0.01-0.41-2.35-1.98-5.25-3.48-2.89-1.5-6.61-2.72-8.26-2.71-1.65 0-5.02 0.85-7.5 1.88zm-57.53 1.85c-2.73 0.81-6.54 2.15-8.47 2.96l-3.5 1.49c3.88 2.97 7.03 4.78 9.5 5.93l4.5 2.1c10.07-3.5 13.79-4.91 14.75-5.39 0.96-0.49 1.86-1.25 1.99-1.69 0.13-0.45-1.55-1.64-3.75-2.63-2.19-1-5.35-2.37-7.02-3.04-2.46-0.98-3.98-0.93-8 0.27zm145.03 3.06c-2.2 0.91-4.56 1.99-5.25 2.4-0.96 0.57-0.84 1.23 0.5 2.78 0.96 1.11 4 2.96 6.75 4.1 4.15 1.73 5.59 1.91 8.5 1.02 1.93-0.59 4.98-2.55 6.78-4.36l3.29-3.29c-7.81-3.49-11.53-4.45-13.32-4.4-1.79 0.06-5.05 0.85-7.25 1.75zm57.92 5.62c-3.19 4.11-5.69 7.59-5.57 7.75 0.12 0.15 3.02-0.68 6.44-1.85l6.21-2.14c0.42-8.7 0.13-11.23-0.37-11.23-0.51 0-3.52 3.36-6.71 7.47zm53.08-4.75c-1.1 0.27-4.48 1.51-7.5 2.74-3.02 1.24-9.77 3.87-15 5.84-7.72 2.93-9.74 4.13-10.78 6.4-0.7 1.54-1.04 3.03-0.76 3.3 0.29 0.27 4.24-1.03 8.78-2.9 4.54-1.87 10.51-4.41 13.26-5.64 2.75-1.23 7.15-3.07 9.78-4.1 3.77-1.46 4.78-2.34 4.75-4.11-0.01-1.24-0.14-2.2-0.28-2.13-0.14 0.06-1.15 0.33-2.25 0.6zm-170.5 2.83c-3.02 1.27-5.5 2.91-5.5 3.63 0 0.73 2.48 2.56 5.5 4.07 3.02 1.52 6.4 2.58 7.5 2.35 1.1-0.22 4.25-1.02 7-1.78 2.75-0.76 6.02-2.04 7.28-2.85 1.78-1.16 2-1.7 1-2.55-0.71-0.59-3.76-2.06-6.78-3.27-3.02-1.21-6.62-2.13-8-2.06-1.37 0.07-4.98 1.18-8 2.46zm-51.5-0.27c-1.65 0.59-4.86 1.87-7.13 2.84-2.27 0.97-4.2 2.13-4.28 2.57-0.09 0.45 2.9 2.27 6.63 4.04 3.73 1.78 7.12 3.24 7.53 3.25 0.41 0.01 4.14-1.44 8.28-3.23 4.15-1.79 7.53-3.48 7.51-3.75-0.01-0.27-2.62-1.95-5.78-3.72-3.17-1.77-6.66-3.19-7.76-3.14-1.1 0.04-3.35 0.55-5 1.14zm138 8.25c-11 5.15-20.68 9.41-21.5 9.46-1.17 0.08-1.26-0.24-0.38-1.45 0.61-0.84 1.06-1.55 1-1.55-0.07-0.01-4.17 1.35-9.12 3.03-4.95 1.67-10.02 3.59-11.28 4.26-1.25 0.67-2.28 1.45-2.29 1.72-0.01 0.27 3.49 2.24 7.78 4.37l7.79 3.86c12.4-4.95 18.93-7.48 22.5-8.83 3.57-1.35 8.52-3.39 11-4.54 2.48-1.16 5.51-2.5 6.75-2.98 1.46-0.57 3.47-3.5 5.75-8.38 1.93-4.12 3.5-7.73 3.5-8 0-0.27-0.34-0.46-0.75-0.42-0.41 0.04-9.75 4.29-20.75 9.45zm-204.5-3.77c-4.12 1.41-7.39 3.05-7.25 3.65 0.13 0.6 2.27 2.33 4.75 3.84 2.47 1.51 5.51 3.02 6.75 3.35 1.41 0.38 5.34-0.64 10.54-2.75 4.56-1.84 8.27-3.69 8.25-4.1-0.02-0.41-2.85-2.1-6.29-3.75-3.44-1.65-6.93-2.95-7.75-2.89-0.82 0.06-4.87 1.25-9 2.65zm152.5 1.79c-2.2 0.87-4.79 1.78-5.75 2.02-0.96 0.23-1.75 0.88-1.75 1.43 0 0.55 2.14 2.35 4.75 4.01 2.61 1.65 5.65 3.26 6.75 3.57 1.1 0.32 5.71-0.81 10.25-2.5 4.54-1.7 8.25-3.53 8.25-4.08 0-0.55-1.91-1.95-4.25-3.11-2.34-1.15-6.5-2.29-9.25-2.51-3.12-0.26-6.51 0.18-9 1.17zm-54.5 1.5c-0.82 0.52-4.2 1.9-7.5 3.08l-6 2.14c4.65 3.67 7.8 5.46 10 6.35 3.65 1.48 4.44 1.48 9 0.06 2.75-0.86 6.69-2.27 8.75-3.12 2.06-0.86 3.75-1.79 3.75-2.06 0-0.27-3.15-2.08-7-4-3.85-1.92-7.56-3.47-8.25-3.44-0.69 0.03-1.93 0.48-2.75 0.99zm-63.5 3.91c-4.4 1.55-10.25 3.61-13 4.57-2.75 0.96-5.58 2.25-6.29 2.86-0.72 0.61-1.28 1.45-1.25 1.86 0.02 0.41 2.97 2.1 6.54 3.75 6.49 3 6.51 3 11.75 1.39 2.89-0.88 9.88-3.47 15.53-5.75 5.66-2.28 10.27-4.48 10.25-4.89-0.01-0.41-2.84-2.1-6.28-3.75-3.44-1.65-6.92-2.97-7.75-2.93-0.82 0.04-5.1 1.34-9.5 2.89zm-83.77-0.71c-0.22 0.69-0.24 1.92-0.03 2.75 0.2 0.83 2.72 2.91 5.58 4.64 2.87 1.73 7.02 4.14 9.22 5.35 2.2 1.21 5.35 3.01 7 4 1.65 0.98 10.2 5.73 19 10.55 8.8 4.82 18.48 10.11 21.5 11.76 3.03 1.65 6.74 3.84 8.25 4.85 1.51 1.02 2.98 1.85 3.25 1.85 0.28 0 6.24 3.22 13.25 7.16 7.01 3.94 15.45 8.6 18.75 10.36 3.3 1.75 8.48 4.66 11.5 6.47 3.03 1.8 13.6 7.76 23.5 13.26 9.9 5.49 18.45 10.32 19 10.73 0.55 0.42 6.63 3.72 13.5 7.34 6.88 3.62 14.75 7.27 17.5 8.12 2.75 0.85 6.8 1.53 9 1.51 2.2-0.01 6.48-0.63 9.5-1.37 3.02-0.75 6.63-1.8 8-2.34 1.38-0.54 5.88-2.56 10-4.48 4.13-1.93 12.68-5.62 19-8.2 6.32-2.58 14.43-6.06 18-7.74 3.57-1.68 12.8-5.76 20.5-9.08 7.7-3.32 17.38-7.49 21.5-9.27 4.13-1.79 11.32-4.9 16-6.92 4.68-2.01 12.21-5.44 16.75-7.61 4.54-2.17 8.48-3.94 8.75-3.94 0.27 0 15.24-6.55 33.25-14.55 18.01-8 34.55-15.37 36.75-16.38 2.2-1.02 7.5-3.36 11.78-5.21 4.29-1.85 7.77-3.7 7.75-4.11-0.01-0.41-1.38-1.42-3.03-2.25-2.92-1.46-3.47-1.29-21.75 6.85-10.31 4.59-27.75 12.29-38.75 17.12-11 4.82-25.62 11.25-32.5 14.28-6.87 3.04-16.1 6.98-20.5 8.76-4.4 1.78-11.37 4.82-15.5 6.74-4.12 1.92-17.18 7.66-29 12.74-11.82 5.08-23.98 10.36-27 11.73-3.02 1.37-6.4 2.85-7.5 3.29-1.1 0.43-6.05 2.59-11 4.8-4.95 2.2-11.25 4.87-14 5.94-2.75 1.07-7.7 2.53-11 3.25-5.23 1.15-6.74 1.1-11.75-0.34-3.16-0.91-8.79-3.24-12.5-5.16-3.71-1.93-9-4.78-11.75-6.34-2.75-1.56-11.07-6.22-18.5-10.36-7.43-4.13-16.2-8.95-19.5-10.69-3.3-1.74-7.8-4.2-10-5.45-2.2-1.26-10.97-6.14-19.5-10.85-8.52-4.7-17.86-9.96-20.75-11.68-2.89-1.72-5.47-3.13-5.75-3.13-0.27 0-3.76-1.9-7.75-4.21-3.99-2.32-20.07-11.32-35.75-20-15.68-8.68-29.26-15.78-30.18-15.79-0.93 0-1.87 0.56-2.09 1.25zm174.85 5.61c-3.8 1.45-7.07 3.2-7.25 3.89-0.19 0.71 2.39 2.55 5.92 4.23 3.44 1.64 7.15 2.96 8.25 2.94 1.1-0.03 5.1-1.25 8.88-2.73 3.78-1.48 6.88-3.14 6.89-3.69 0.01-0.55-2.75-2.46-6.13-4.25-3.38-1.79-6.93-3.2-7.89-3.14-0.96 0.05-4.86 1.29-8.67 2.75zm108.42 2.5c-4.68 1.8-10.75 4.33-13.5 5.61-2.75 1.29-5.34 2.27-5.75 2.19-0.41-0.09-3.68 1.19-7.25 2.84-3.57 1.65-6.95 3.9-7.5 5-0.76 1.52-0.58 2.48 0.75 3.99 0.96 1.09 11.2 6.76 22.75 12.6 20.3 10.27 21.17 10.6 26 10.03 2.75-0.32 9.73-2.54 15.5-4.93 5.77-2.4 11.4-4.81 12.5-5.36 1.1-0.56 4.02-1.96 6.5-3.12 2.48-1.16 9-3.95 14.5-6.2 5.5-2.25 11.3-4.64 12.9-5.3 1.59-0.67 8.34-3.7 15-6.75 10.85-4.96 12.13-5.81 12.35-8.25 0.2-2.18-0.38-3.02-3-4.31-2.04-1-4.18-1.33-5.75-0.89l-2.5 0.71c3.49 1.38 4.73 2.23 5 2.78 0.27 0.55-0.06 1.37-0.75 1.83-0.69 0.46-4.85 2.37-9.25 4.25-4.4 1.88-8.11 3.76-8.25 4.17-0.14 0.41-0.93 0.75-1.75 0.75-0.82 0-2.96 0.65-4.75 1.44-1.79 0.79-11.8 5.1-22.25 9.58-10.45 4.47-20.35 8.75-22 9.5-1.65 0.75-5.14 2.29-7.75 3.42-2.61 1.13-6.21 2.05-8 2.04-2.13-0.02-9.73-3.39-22-9.75-10.31-5.35-18.59-10.18-18.4-10.73 0.18-0.55 2.99-2.03 6.24-3.29 3.25-1.25 6.81-2.7 7.91-3.22 1.1-0.51 5.38-2.25 9.5-3.86 4.13-1.61 8.75-3.54 10.28-4.28 1.83-0.89 2.77-2.11 2.75-3.6-0.02-1.24-0.37-2.23-0.78-2.2-0.41 0.02-4.57 1.51-9.25 3.31zm-170.5 1.62c-6.05 2.16-14.15 5.11-18 6.55-3.85 1.44-7.79 2.81-8.75 3.05-0.96 0.23-1.75 0.87-1.75 1.42 0 0.55 1.24 1.79 2.75 2.75 1.51 0.97 4.32 2.6 6.25 3.63 3.45 1.86 3.59 1.85 10.5-0.32 3.85-1.2 9.7-3.33 13-4.73 3.3-1.39 7.13-3.02 8.5-3.61 1.38-0.59 4.48-1.79 6.91-2.65 2.42-0.86 4.56-2.13 4.75-2.82 0.19-0.72-2.42-2.52-6.16-4.25-3.57-1.65-6.61-2.99-6.75-2.98-0.14 0.02-5.2 1.8-11.25 3.96zm31.5 7.61c-6.32 2.49-15.55 6.12-20.5 8.07-4.95 1.95-10.91 4.29-13.25 5.19-2.34 0.91-4.26 2.1-4.26 2.65-0.01 0.55 2.92 2.46 6.5 4.25 3.58 1.79 7.07 3.25 7.76 3.25 0.69 0 6.88-2.2 13.75-4.9 6.88-2.69 16.1-6.25 20.5-7.92 4.4-1.66 9.35-3.73 11-4.6 1.65-0.86 3.56-1.57 4.25-1.57 0.69-0.01 1.48-0.46 1.75-1.01 0.27-0.55-2.65-2.58-6.5-4.5-3.85-1.92-7.56-3.48-8.25-3.46-0.69 0.02-6.43 2.07-12.75 4.55zm52 0.41c-0.82 0.53-3.86 1.65-6.75 2.48-2.89 0.84-5.48 1.97-5.75 2.52-0.27 0.55 0.29 1.64 1.25 2.42 0.96 0.78 4.23 2.63 7.25 4.11l5.5 2.69c10.77-3.66 14.71-5.39 15.69-6.22 0.99-0.83 1.46-1.97 1.05-2.55-0.41-0.58-3.1-2.27-5.99-3.75-2.89-1.49-6.49-2.69-8-2.68-1.51 0-3.43 0.45-4.25 0.98zm-30 11.6c-3.57 1.37-7.18 3.13-8 3.92-0.82 0.79-1.27 1.59-1 1.78 0.27 0.19 3.09 1.78 6.25 3.52 3.16 1.75 6.76 3.18 8 3.17 1.24 0 5.4-1.29 9.25-2.86 3.85-1.57 7.12-3.26 7.26-3.74 0.14-0.49-2.34-2.3-5.5-4.03-3.17-1.72-6.66-3.39-7.76-3.69-1.1-0.31-4.93 0.56-8.5 1.93zm-28 10.78c-3.57 1.24-7.62 2.97-9 3.85l-2.5 1.6c3.88 2.37 7.48 4.2 10.5 5.59 4.84 2.23 5.98 2.4 9.5 1.44 2.2-0.6 6.14-2.16 8.75-3.47 2.61-1.32 4.59-2.95 4.4-3.64-0.19-0.69-2.32-2.44-4.75-3.89-2.42-1.46-5.75-2.89-7.4-3.19-1.82-0.33-5.56 0.34-9.5 1.71z"/>
		<path id="Path 2" fill-rule="evenodd" class="s0" d="m246.56 207.25c-0.22 0.69-0.62 2.6-0.9 4.25-0.27 1.65-0.21 4.35 0.14 6 0.35 1.65 2 4.44 3.67 6.21 1.67 1.77 3.93 3.24 5.03 3.28 1.93 0.06 1.92-0.02-0.23-2.21-1.22-1.26-3.16-4.75-4.3-7.78-1.15-3.03-1.88-6.74-1.62-8.25 0.25-1.51 0.04-2.75-0.47-2.75-0.51 0-1.11 0.56-1.32 1.25zm9.85 5c-0.34 1.24-0.12 3.26 0.49 4.5 0.6 1.24 2.79 3.3 4.85 4.59 2.06 1.28 6 3.09 8.75 4.01 3.26 1.09 8.22 1.67 14.25 1.66 6.22-0.01 13.1-0.86 21-2.6 9.25-2.03 13.29-2.46 19-2 4.56 0.37 7.25 0.22 7.25-0.41 0-0.55-2.24-1.74-4.97-2.64-3.89-1.28-7.05-1.49-14.5-1-5.24 0.35-10.43 1.09-11.53 1.64-1.1 0.55-4.7 1-8 1-3.3 0-8.36-0.48-11.25-1.07-2.89-0.59-9.19-3.07-14-5.5-4.81-2.44-9.19-4.43-9.73-4.43-0.55 0-1.27 1.01-1.61 2.25zm-46.53 4.71c1.07 2.18 1.99 5.44 2.05 7.25 0.05 1.81-0.8 5.99-1.91 9.29-1.1 3.3-1.78 6.22-1.51 6.5 0.28 0.28 1.64-0.62 3.04-2 1.4-1.37 3.02-4.3 3.6-6.5 0.58-2.2 0.76-6.03 0.41-8.5-0.36-2.47-1.42-5.74-2.36-7.26-0.93-1.52-2.5-2.76-3.48-2.75-1.69 0.01-1.68 0.23 0.16 3.97zm12.1 6.79c0.01 3.44-0.2 6.93-0.48 7.75-0.28 0.82-0.05 1.5 0.5 1.5 0.55 0 1.29-1.01 1.65-2.25 0.36-1.24 0.57-4.28 0.47-6.75-0.1-2.47-0.62-4.95-1.17-5.5-0.65-0.66-0.98 1.12-0.97 5.25zm-29.48 6.37c-2.75 3.93-7.47 9.05-10.5 11.37-3.03 2.32-7.07 5.02-9 6.01-1.93 0.98-7.78 3.33-13 5.22-5.22 1.88-11.75 4.55-14.5 5.93-2.75 1.38-6.57 3.7-8.5 5.16-1.93 1.46-4.63 3.97-6 5.57-1.38 1.6-2.84 3.52-3.25 4.27-0.41 0.74-0.54 1.69-0.29 2.1 0.25 0.41 2.62-1.11 5.25-3.39 2.63-2.28 7.49-5.55 10.79-7.26 3.3-1.71 9.15-4.04 13-5.19 3.85-1.14 10.94-3.39 15.75-4.99 4.81-1.61 11.11-4.43 14-6.27 2.89-1.85 7.05-5.11 9.26-7.25 2.2-2.15 5.04-5.93 6.29-8.4 1.26-2.47 2.15-5.62 1.99-7-0.23-1.97-0.92-2.56-3.29-2.77-2.69-0.24-3.51 0.47-8 6.89zm93 5.35c-3.85 0.69-8.01 1.77-9.25 2.39-1.24 0.63-2.25 1.59-2.25 2.14 0 0.55 0.95 0.72 2.13 0.36 1.92-0.57 1.82-0.2-1 3.75-2.11 2.97-3.3 6.01-3.67 9.39l-0.55 5c4.37-8.53 6.93-12.88 8.52-15.18 1.64-2.39 4.2-4.65 5.97-5.27 1.71-0.6 7.37-1.06 12.6-1.03 5.23 0.03 12.43 0.69 16 1.48 3.57 0.79 7.4 1.43 8.5 1.43 1.43-0.01 0.99-0.51-1.5-1.74-1.93-0.95-6.2-2.28-9.5-2.95-3.3-0.68-8.93-1.18-12.5-1.13-3.57 0.06-9.65 0.67-13.5 1.36zm-48.21 8.53c0.31 1.93 0.13 4.18-0.39 5-0.8 1.28-1.23 1.17-2.92-0.75-1.09-1.24-2.2-1.8-2.48-1.25-0.28 0.55 0.63 2.24 2 3.75l2.51 2.75c3.5-3.95 3.84-5.3 3.36-7.75-0.35-1.79-1.08-3.7-1.63-4.25q-1-1-0.45 2.5zm102.46 1.75c-0.41 0.69-2.89 2.67-5.5 4.4-4.42 2.94-5.58 3.21-16.75 3.92-10.01 0.63-12.91 1.2-17.5 3.44-3.02 1.48-6.85 3.41-8.5 4.3-1.65 0.89-5.84 4.33-9.31 7.65-3.47 3.32-6.54 6.94-6.82 8.04-0.29 1.1-0.15 2.35 0.3 2.77 0.46 0.43 1.96 0.2 3.34-0.5 1.38-0.7 4.08-2.46 6-3.92 1.92-1.46 5.29-3.41 7.49-4.33 2.2-0.93 6.7-2.57 10-3.65 3.53-1.16 10.12-2.19 16-2.5 8.1-0.42 11.42-0.14 17.5 1.5 5.08 1.38 7.82 1.7 8.5 1.01q1.01-1.01-0.75-2.45c-1.63-1.33-1.52-1.56 1.5-3.31 1.79-1.04 4.49-3.29 6-5 1.51-1.72 2.52-3.57 2.25-4.12-0.31-0.61-0.98-0.65-1.75-0.09-0.69 0.5-4.04 1.52-7.44 2.25-3.41 0.74-6.44 1-6.75 0.59-0.31-0.41 0.34-2.1 1.44-3.75 1.1-1.65 1.89-4.01 1.75-5.25q-0.25-2.25-1-1zm-53.28 9.83c-2.21 1.41-5.69 4.89-7.72 7.74-2.03 2.85-3.48 5.29-3.22 5.43 0.26 0.14 3.28-2.59 6.72-6.06 3.44-3.47 7.38-7.05 8.75-7.95 1.59-1.04 1.95-1.65 1-1.68-0.82-0.02-3.31 1.11-5.53 2.52zm-104.97 4.84c-3.85 1.28-8.8 3.18-11 4.22-2.2 1.04-6.59 3.57-9.75 5.63-3.16 2.05-7.99 6.09-10.72 8.98-2.74 2.89-4.99 5.59-5 6-0.02 0.41 1.21-0.09 2.72-1.12 1.51-1.03 3.43-2.68 4.25-3.65 0.82-0.98 3.26-2.95 5.41-4.38 2.16-1.43 5.53-3.61 7.5-4.85 1.98-1.24 5.17-2.96 7.09-3.82 1.93-0.86 5.75-2.37 8.5-3.36 4.82-1.73 5.18-1.73 10 0.03 2.75 1 6.91 3.42 9.25 5.36 2.34 1.95 4.7 3.54 5.25 3.54 0.55 0 0.21-1.33-0.75-2.96-0.96-1.62-4.22-4.54-7.25-6.47-3.09-1.98-4.73-3.53-3.75-3.54 0.96-0.02 1.98-0.48 2.25-1.03 0.29-0.58-1.07-0.98-3.25-0.96-2.06 0.03-6.9 1.1-10.75 2.38zm111.59 15.67c-3.52 1.09-6.33 2.42-6.25 2.95 0.09 0.53 0.5 0.96 0.91 0.96 0.41 0 3.68-0.65 7.25-1.45 3.57-0.81 8.19-1.71 10.25-2.01 2.06-0.3 3.75-0.99 3.75-1.54 0-0.55-2.14-0.97-4.75-0.94-2.61 0.03-7.63 0.94-11.16 2.03zm-39.5 1.41c-0.4 1.68 0.36 4.4 2.29 8.25 2.61 5.19 3.4 5.94 8.18 7.75 3.14 1.19 5.92 3.02 6.82 4.5 1.26 2.06 1.36 3.87 0.57 10.34-0.52 4.31-0.61 8.03-0.2 8.25 0.41 0.23 1.69-1.28 2.83-3.34 1.19-2.14 2.29-6.33 2.56-9.75 0.3-3.86 0-6.87-0.84-8.43-0.73-1.37-4.37-3.99-8.3-6-6.52-3.33-7.14-3.93-9-8.82-1.1-2.89-2.53-5.25-3.16-5.25-0.64 0-1.43 1.13-1.75 2.5zm79.87 4.88c-2.55 3.5-4.59 6.65-4.54 7 0.04 0.34-0.99 2.08-2.29 3.87-1.3 1.79-3.18 4.6-4.18 6.25-1 1.65-1.35 2.55-0.77 2 0.57-0.55 3.92-5.27 7.43-10.5 3.52-5.23 7.15-10.74 8.08-12.25 0.93-1.51 1.51-2.75 1.29-2.75-0.21 0-2.48 2.87-5.02 6.38zm9.36-2.03c-0.84 1.18-3.27 4.85-5.4 8.15-2.13 3.3-3.32 5.66-2.64 5.25 0.67-0.41 3.24-3.9 5.72-7.75 2.48-3.85 4.35-7.18 4.17-7.4-0.18-0.22-1.01 0.56-1.85 1.75zm3.44 7.9c-3.77 5.64-7.16 10.81-7.55 11.5-0.39 0.69-0.48 1.25-0.21 1.25 0.27 0 3.57-4.61 7.32-10.25 3.75-5.64 7.11-10.81 7.46-11.5 0.36-0.69 0.46-1.25 0.23-1.25-0.23 0-3.49 4.61-7.25 10.25zm-151.26-5.73c4.68 1.28 9.51 2.59 10.75 2.91 1.24 0.31 2.27 0.23 2.29-0.18 0.02-0.41-2.23-1.76-5-3-3.47-1.55-6.83-2.22-10.79-2.16l-5.75 0.09zm108.23 10.85c-4.46 6.67-8.43 13.04-8.81 14.14-0.38 1.1 3.43-4.3 8.48-12 5.05-7.7 9.02-14.07 8.82-14.14-0.2-0.07-4.02 5.33-8.49 12zm-14.54-3.61c-1.28 2.06-2.72 4.42-3.2 5.25-0.7 1.2-0.59 1.27 0.57 0.34 0.79-0.64 2.43-3 3.65-5.25 1.21-2.25 2.01-4.09 1.76-4.09-0.25 0-1.5 1.68-2.78 3.75zm-110.69-1.6c-3.58 0.48-6.95 1.27-7.5 1.77-0.55 0.49-2.69 1.16-4.75 1.49-2.06 0.32-3.74 0.92-3.72 1.34 0.02 0.41-1.67 1.53-3.75 2.48-2.08 0.96-5.81 2.9-8.28 4.32-4 2.29-5.24 2.51-11.25 2.01-5.03-0.42-6.76-0.25-6.78 0.69-0.01 0.68 2.12 2.42 4.75 3.85l4.78 2.61c-9.3 3.23-13.46 4.42-15.25 4.73-1.79 0.3-3.25 1.01-3.25 1.56 0 0.55 1.12 1.45 2.5 2 1.37 0.55 4.97 1 8 1 5.44 0 5.5 0.03 5.5 3 0 1.65 0.22 3 0.5 3 0.27 0 3.09-2.33 6.25-5.18 3.16-2.84 8.9-7.2 12.75-9.68 3.85-2.48 9.25-5.51 12-6.72 2.75-1.2 8.15-3.01 12-4.01 5.22-1.35 10.12-1.77 19.25-1.62 6.74 0.11 12.26-0.13 12.28-0.54 0.01-0.42-1-1.72-2.25-2.89-1.26-1.18-4.76-2.85-7.78-3.71-3.03-0.86-8.65-1.75-12.5-1.97-3.85-0.22-9.93-0.01-13.5 0.47zm117.78 3.6c-1.34 2.06-3.19 4.98-4.11 6.5-0.92 1.51-1.44 2.75-1.17 2.75 0.27 0 1.77-1.92 3.32-4.25 1.54-2.34 3.31-5.27 3.93-6.5 0.61-1.24 0.97-2.25 0.79-2.25-0.17 0-1.41 1.68-2.76 3.75zm18-1.59c-0.86 1.28-2.82 4.24-4.35 6.57-1.54 2.32-2.71 4.57-2.61 5 0.09 0.42 2.2-2.27 4.68-5.98 2.47-3.72 4.35-7.02 4.17-7.34-0.18-0.32-1.03 0.46-1.89 1.75zm-76.45 2.03c-1.11 1.82-2.99 4.99-4.18 7.06-1.18 2.06-1.93 3.75-1.65 3.75 0.27 0 2.32-3.04 4.54-6.75 2.22-3.72 3.87-6.89 3.67-7.06-0.19-0.16-1.27 1.19-2.38 3zm110.14 6.54c-1.43 2.05-2.56 4.19-2.5 4.75 0.05 0.56 0.79 0.12 1.64-0.98 0.85-1.1 2.15-3.24 2.89-4.75 0.74-1.52 1.17-2.75 0.95-2.75-0.21 0-1.56 1.67-2.98 3.73zm-152.97 2.86c-2.2 0.79-5.46 2.11-7.25 2.93-1.79 0.81-3.48 1.93-3.75 2.48-0.28 0.55-0.39 1.2-0.25 1.46 0.14 0.25 4.97-1.37 10.75-3.62 5.77-2.24 10.69-4.25 10.92-4.46 0.23-0.21-1.12-0.35-3-0.31-1.88 0.03-5.22 0.72-7.42 1.52zm9.69 16.91c-2.86 5.22-5.08 9.69-4.94 9.94 0.14 0.24 2.61-3.81 5.5-9 2.89-5.2 5.11-9.67 4.94-9.94-0.18-0.27-2.65 3.78-5.5 9zm50.97-6.73c-1.37 1.01-2.19 2.51-2 3.62 0.31 1.76 0.59 1.7 3.59-0.75 1.79-1.45 3.02-3.09 2.75-3.64-0.27-0.55-0.84-0.99-1.25-0.98-0.41 0.01-1.8 0.8-3.09 1.75zm-42.27 6.44c-0.81 1.26-2.91 5.1-4.68 8.54-1.77 3.43-3.1 6.49-2.96 6.78 0.14 0.29 1.43-1.39 2.87-3.75 1.45-2.36 3.58-6.2 4.75-8.53 1.17-2.34 1.98-4.49 1.81-4.79-0.18-0.29-0.99 0.5-1.79 1.75zm-37.71 7.83c-0.65 1.08-4.56 8.48-8.68 16.46-4.13 7.97-7.39 14.69-7.25 14.92 0.14 0.24 2.1-3.03 4.35-7.25 2.26-4.22 6.2-11.61 8.75-16.42 2.56-4.82 4.51-8.96 4.33-9.21-0.18-0.25-0.85 0.43-1.5 1.5zm-18.49 4.71c-1.89 3.16-4 6.87-4.68 8.25-1.09 2.19-1.07 2.31 0.22 1 0.81-0.83 3.06-4.54 5.01-8.25 1.95-3.72 3.39-6.75 3.21-6.75-0.18 0-1.88 2.58-3.76 5.75zm31.96 0c-1.51 3.16-3.84 7.55-5.18 9.75-1.34 2.2-2.45 4.45-2.46 5-0.01 0.55 0.59 0.1 1.35-1 0.76-1.1 3.41-5.94 5.89-10.75 2.48-4.82 4.2-8.75 3.82-8.75-0.38 0-1.92 2.58-3.42 5.75zm162.33-5.5c-0.02 0.13 1.38 3.4 3.09 7.25 1.72 3.85 3.19 8.21 3.28 9.7 0.08 1.49-0.4 3.29-1.06 4-0.7 0.75-1.87 0.98-2.75 0.55-0.85-0.42-1.8-1.99-2.11-3.5-0.32-1.52-1-3.65-1.52-4.75-0.7-1.5-0.87-0.71-0.67 3.07 0.14 2.79 0.93 5.85 1.76 6.8 0.82 0.94 2.74 1.69 4.25 1.67 2.21-0.04 3.07-0.78 4.35-3.79 1.29-3.02 1.39-4.44 0.5-7.25-0.61-1.93-2.57-5.87-4.35-8.77-1.79-2.89-3.59-5.26-4-5.25-0.41 0.01-0.76 0.13-0.77 0.27zm-187.08 6c-1.17 2.33-4.17 8.07-6.67 12.75-2.49 4.67-4.06 8.05-3.49 7.5 0.57-0.55 3.47-5.5 6.44-11 2.97-5.5 5.66-10.79 5.98-11.75 0.32-0.97 0.42-1.75 0.23-1.75-0.2 0-1.32 1.91-2.49 4.25zm102.6 0.65c-3.3 0.97-8.02 2.73-10.5 3.92-2.47 1.19-7.11 4.75-10.29 7.92-3.6 3.57-7.1 8.41-9.25 12.76-2.06 4.15-4.1 10.45-5.03 15.5-0.95 5.2-1.32 10.63-0.95 14 0.34 3.02 1.52 7.52 2.63 10 1.1 2.47 2.99 5.55 4.2 6.84 1.2 1.29 3.76 3.15 5.69 4.13 1.93 0.98 8.11 2.51 13.75 3.41 5.64 0.89 12.16 1.61 14.5 1.61 2.34 0 6.05-0.54 8.25-1.18 2.2-0.65 4.34-1.1 4.75-1 0.41 0.1 3.79-1.79 7.5-4.2 3.71-2.41 8.14-6.12 9.85-8.25 1.7-2.12 4.13-5.89 5.4-8.36 1.88-3.69 2.27-5.95 2.15-12.5-0.07-4.43-1.07-11.58-2.23-16-1.14-4.4-3.56-11.15-5.36-15-1.81-3.85-4.58-8.22-6.17-9.71-1.59-1.48-4.91-3.41-7.39-4.27-2.48-0.86-6.98-1.52-10-1.47-3.02 0.05-8.2 0.88-11.5 1.85zm1.75 2.66c3.06-0.83 7.34-1.22 10.25-0.91 2.75 0.28 6.35 0.92 8 1.41 1.65 0.49 4.01 1.8 5.25 2.91 1.38 1.25 2.25 3.18 2.25 5.03 0 2.19-0.94 3.8-3.5 6-1.93 1.65-4.18 3-5 3-0.82 0-1.79-1.24-2.13-2.75-0.35-1.52-0.13-3.54 0.5-4.5 0.94-1.47 0.8-1.75-0.87-1.75-1.1 0-3.24 0.49-4.75 1.1-1.51 0.61-6.8 2.21-11.75 3.56-4.95 1.34-11.82 2.76-15.26 3.14-3.97 0.44-6.26 0.33-6.27-0.3-0.01-0.55 0.8-1.9 1.79-3 0.99-1.1 3.36-3.2 5.27-4.65 1.91-1.46 5.16-3.6 7.22-4.75 2.06-1.16 6.11-2.75 9-3.54zm-95.81 58.94c0.32 2.75 0.57 6.01 0.57 7.25-0.01 1.23 1.34 3.6 2.99 5.25 1.65 1.65 3.68 3 4.5 3 0.82 0 2.4-0.9 3.5-2 1.5-1.51 1.86-2.81 1.43-5.25-0.32-1.79-0.8-4.15-1.07-5.25-0.27-1.1-0.8-1.63-1.18-1.18-0.37 0.46-0.56 2.48-0.41 4.5 0.15 2.02-0.2 4.35-0.77 5.18-0.89 1.28-1.37 1.13-3.33-1-1.27-1.4-2.59-4.49-2.97-7-0.38-2.48-1.4-5.4-2.27-6.5-1.47-1.88-1.53-1.69-0.99 3zm115.16 21.35c-6.01 3.18-7.91 3.68-14.75 3.9-4.4 0.14-7.85 0.68-7.85 1.25 0 0.55 2.14 1.48 4.75 2.08 3.48 0.8 6.22 0.78 10.25-0.05 3.02-0.63 7.07-2.03 9-3.11 1.93-1.08 4.23-3.3 5.12-4.94 0.89-1.64 1.34-2.94 1-2.88-0.34 0.06-3.72 1.75-7.52 3.75z"/>
		<path id="Path 3" class="s1" d="m265.75 379.03c-1.56 0.87-1.35 1.36 2 4.57 2.06 1.97 3.07 3.35 2.25 3.05-0.82-0.29-4.2-1.67-7.5-3.07-3.3-1.39-7.91-2.54-10.25-2.56-2.34-0.01-5.94 0.68-8 1.54-2.06 0.85-4.77 2.54-6.03 3.75-1.25 1.2-2.27 3.09-2.27 4.19 0.01 1.1 0.69 3.46 1.53 5.25 0.84 1.79 3.21 4.35 5.27 5.69 2.06 1.34 5.78 2.88 8.25 3.42 2.47 0.54 8.1 1.48 12.5 2.1 6.68 0.94 9.07 0.86 14.5-0.47 3.57-0.87 8.28-2.58 10.46-3.79 2.17-1.21 4.62-3.32 5.43-4.7 1.35-2.29 1.25-2.97-1.21-8.25-2.23-4.79-3.56-6.25-7.93-8.74-4.24-2.42-6.4-2.99-11.25-2.97-3.3 0.01-6.79 0.46-7.75 0.99zm27.11 3.81c0.06 0.36 0.78 1.56 1.61 2.66 0.82 1.1 1.95 3.69 2.51 5.75l1.02 3.75c3.1-3.87 4.01-5.56 4.03-6.25 0.01-0.69-1-2.2-2.25-3.36-1.26-1.16-3.35-2.36-4.65-2.66-1.31-0.3-2.33-0.25-2.27 0.11z"/>
	</g>
</svg>